<svg id="visual" viewBox="0 0 900 600" width="900" height="600" xmlns="http://www.w3.org/2000/svg" xmlns:xlink="http://www.w3.org/1999/xlink" version="1.1"><rect x="0" y="0" width="900" height="600" fill="#007bff"></rect><path d="M0 480L21.5 475.3C43 470.7 86 461.3 128.8 463.3C171.7 465.3 214.3 478.7 257.2 486.5C300 494.3 343 496.7 385.8 497.8C428.7 499 471.3 499 514.2 487.2C557 475.3 600 451.7 642.8 451C685.7 450.3 728.3 472.7 771.2 472.2C814 471.7 857 448.3 878.5 436.7L900 425L900 601L878.5 601C857 601 814 601 771.2 601C728.3 601 685.7 601 642.8 601C600 601 557 601 514.2 601C471.3 601 428.7 601 385.8 601C343 601 300 601 257.2 601C214.3 601 171.7 601 128.8 601C86 601 43 601 21.5 601L0 601Z" fill="#00c6FF" stroke-linecap="round" stroke-linejoin="miter"></path></svg>